<svg width="506" height="702" viewBox="0 0 506 702" fill="none" xmlns="http://www.w3.org/2000/svg">
<path d="M33.2756 700.999C24.6923 700.963 16.366 697.512 10.3215 691.398C4.36787 685.376 1.04861 677.141 1.00319 668.685C0.996016 667.384 1.00319 666.083 1.00319 664.782C1.00319 661.045 1.00319 657.306 1.00319 653.569C1.00319 647.678 1.00319 641.787 1.00319 635.898C1.00319 628.084 1.00319 620.269 1.00319 612.455C1.00319 602.903 1.00319 593.351 1.00319 583.799C1.00319 572.858 1.00319 561.917 1.00319 550.974C1.00319 538.839 1.00319 526.702 1.00319 514.567C1.00319 501.441 1.00319 488.316 1.00319 475.192C1.00319 461.355 1.00319 447.517 1.00319 433.68C1.00319 419.414 1.00319 405.148 1.00319 390.883C1.00319 376.355 1.00319 361.826 1.00319 347.298C1.00319 332.79 1.00319 318.283 1.00319 303.775C1.00319 289.571 1.00319 275.368 1.00319 261.164C1.00319 247.467 1.00319 233.771 1.00319 220.074C1.00319 207.057 1.00319 194.041 1.00319 181.024C1.00319 169.074 1.00319 157.126 1.00319 145.176C1.00319 134.462 1.00319 123.748 1.00319 113.034C1.00319 103.753 1.00319 94.4722 1.00319 85.1898C1.00319 77.6859 1.00319 70.182 1.00319 62.6781C1.00319 57.1393 1.00319 51.6006 1.00319 46.063C1.00319 42.7203 1.00319 39.3777 1.00319 36.0362C1.00319 33.736 0.975684 31.4489 1.2745 29.1582C2.37535 20.7184 6.85524 12.9141 13.593 7.72244C19.2789 3.34097 26.2832 1.03833 33.4417 1.01679C35.8729 1.00961 38.3041 1.01679 40.7353 1.01679C46.4021 1.01679 52.0701 1.01679 57.7369 1.01679C66.1612 1.01679 74.5855 1.01679 83.011 1.01679C93.6717 1.01679 104.333 1.01679 114.994 1.01679C127.347 1.01679 139.699 1.01679 152.052 1.01679C165.618 1.01679 179.184 1.01679 192.749 1.01679C207.102 1.01679 221.455 1.01679 235.808 1.01679C250.284 1.01679 264.76 1.01679 279.234 1.01679C293.404 1.01679 307.576 1.01679 321.746 1.01679C335.176 1.01679 348.606 1.01679 362.036 1.01679C374.072 1.01679 386.108 1.01679 398.144 1.01679C408.356 1.01679 418.569 1.01679 428.781 1.01679C436.701 1.01679 444.621 1.01679 452.541 1.01679C457.574 1.01679 462.608 1.01679 467.641 1.01679C469.675 1.01679 471.717 0.970117 473.751 1.03355C482.273 1.29804 490.502 5.04401 496.318 11.2841C501.881 17.2525 504.955 25.1873 504.997 33.3375C505.004 34.7353 504.997 36.1332 504.997 37.531C504.997 41.344 504.997 45.1558 504.997 48.9688C504.997 54.9516 504.997 60.9332 504.997 66.916C504.997 74.7993 504.997 82.6825 504.997 90.5658C504.997 100.121 504.997 109.676 504.997 119.232C504.997 130.28 504.997 141.328 504.997 152.377C504.997 164.554 504.997 176.732 504.997 188.908C504.997 202.027 504.997 215.148 504.997 228.267C504.997 242.164 504.997 256.061 504.997 269.958C504.997 284.237 504.997 298.516 504.997 312.795C504.997 327.287 504.997 341.779 504.997 356.271C504.997 370.814 504.997 385.355 504.997 399.897C504.997 414.086 504.997 428.274 504.997 442.463C504.997 456.135 504.997 469.809 504.997 483.481C504.997 496.464 504.997 509.446 504.997 522.428C504.997 534.335 504.997 546.242 504.997 558.148C504.997 568.809 504.997 579.47 504.997 590.132C504.997 599.329 504.997 608.525 504.997 617.721C504.997 625.177 504.997 632.632 504.997 640.088C504.997 645.546 504.997 651.004 504.997 656.462C504.997 659.703 504.997 662.944 504.997 666.185C504.997 668.727 504.998 671.245 504.594 673.77C503.242 682.216 498.511 689.902 491.583 694.906C486.024 698.921 479.325 700.981 472.489 700.998C469.92 701.004 467.35 700.998 464.782 700.998C459 700.998 453.219 700.998 447.437 700.998C438.943 700.998 430.451 700.998 421.957 700.998C411.194 700.998 400.431 700.998 389.667 700.998C377.258 700.998 364.85 700.998 352.44 700.998C338.838 700.998 325.236 700.998 311.634 700.998C297.264 700.998 282.893 700.998 268.524 700.998C254.05 700.998 239.576 700.998 225.104 700.998C210.956 700.998 196.807 700.998 182.659 700.998C169.305 700.998 155.951 700.998 142.598 700.998C130.588 700.998 118.578 700.998 106.567 700.998C96.4351 700.998 86.3028 700.998 76.1704 700.998C68.3689 700.998 60.5661 700.998 52.7646 700.998C47.8329 700.998 42.9012 700.998 37.9695 700.998C36.4048 700.999 34.8402 700.999 33.2756 700.999Z" stroke="black" stroke-width="1.5" stroke-miterlimit="10" stroke-linecap="round" stroke-linejoin="round"/>
<path d="M240.003 13.4849C239.979 10.7557 236.487 9.43535 234.7 11.5338C232.925 13.6202 234.773 16.8953 237.476 16.456C238.923 16.2214 239.99 14.9429 240.003 13.4849Z" stroke="black" stroke-width="1.5" stroke-miterlimit="10" stroke-linecap="round" stroke-linejoin="round"/>
<path d="M259 13.4996C258.954 10.8345 254.998 10.8324 255 13.4996C255.004 16.1648 258.99 16.1688 259 13.4996Z" stroke="black" stroke-width="1.5" stroke-miterlimit="10" stroke-linecap="round" stroke-linejoin="round"/>
<path d="M36.4126 675.997C32.5851 675.995 28.9839 673.821 27.203 670.431C26.2234 668.565 26.0102 666.596 26.0102 664.537C26.0102 662.09 26.0102 659.643 26.0102 657.196C26.0102 652.605 26.0102 648.016 26.0102 643.425C26.0102 636.912 26.0102 630.399 26.0102 623.885C26.0102 615.668 26.0102 607.453 26.0102 599.237C26.0102 589.54 26.0102 579.842 26.0102 570.144C26.0102 559.185 26.0102 548.226 26.0102 537.267C26.0102 525.268 26.0102 513.268 26.0102 501.268C26.0102 488.485 26.0102 475.703 26.0102 462.921C26.0102 449.502 26.0102 436.083 26.0102 422.665C26.0102 408.906 26.0102 395.147 26.0102 381.389C26.0102 367.431 26.0102 353.473 26.0102 339.515C26.0102 325.618 26.0102 311.72 26.0102 297.823C26.0102 284.207 26.0102 270.59 26.0102 256.975C26.0102 243.86 26.0102 230.745 26.0102 217.63C26.0102 205.238 26.0102 192.845 26.0102 180.452C26.0102 169.002 26.0102 157.552 26.0102 146.101C26.0102 135.814 26.0102 125.527 26.0102 115.24C26.0102 106.336 26.0102 97.4323 26.0102 88.5287C26.0102 81.2299 26.0102 73.93 26.0102 66.6312C26.0102 61.1698 26.0102 55.7071 26.0102 50.2456C26.0102 46.8094 26.0102 43.3744 26.0102 39.9382C26.0102 38.7298 25.9863 37.5189 26.0114 36.3104C26.088 32.4694 28.2545 28.9063 31.694 27.1553C33.7132 26.1276 35.8042 26.0222 38.0018 26.0222C41.506 26.0222 45.0114 26.0222 48.5156 26.0222C54.9048 26.0222 61.294 26.0222 67.6832 26.0222C76.4916 26.0222 85.3 26.0222 94.1095 26.0222C104.872 26.0222 115.635 26.0222 126.398 26.0222C138.651 26.0222 150.904 26.0222 163.155 26.0222C176.432 26.0222 189.708 26.0222 202.986 26.0222C216.822 26.0222 230.658 26.0222 244.495 26.0222C258.386 26.0222 272.277 26.0222 286.168 26.0222C299.73 26.0222 313.291 26.0222 326.853 26.0222C339.545 26.0222 352.237 26.0222 364.931 26.0222C376.363 26.0222 387.795 26.0222 399.228 26.0222C408.897 26.0222 418.565 26.0222 428.235 26.0222C435.676 26.0222 443.116 26.0222 450.557 26.0222C455.304 26.0222 460.053 26.0222 464.8 26.0222C466.523 26.0222 468.26 25.9611 469.983 26.0306C473.828 26.1863 477.355 28.5146 478.993 31.9999C479.844 33.8132 479.981 35.69 479.981 37.6447C479.981 40.1814 479.981 42.7181 479.981 45.2548C479.981 49.9258 479.981 54.598 479.981 59.269C479.981 65.8336 479.981 72.3981 479.981 78.9615C479.981 87.21 479.981 95.4597 479.981 103.708C479.981 113.453 479.981 123.197 479.981 132.942C479.981 143.94 479.981 154.938 479.981 165.937C479.981 177.969 479.981 190 479.981 202.032C479.981 214.876 479.981 227.721 479.981 240.565C479.981 254.002 479.981 267.439 479.981 280.875C479.981 294.683 479.981 308.491 479.981 322.301C479.981 336.26 479.981 350.22 479.981 364.179C479.981 378.07 479.981 391.96 479.981 405.85C479.981 419.451 479.981 433.051 479.981 446.652C479.981 459.742 479.981 472.833 479.981 485.922C479.981 498.248 479.981 510.573 479.981 522.897C479.981 534.278 479.981 545.657 479.981 557.038C479.981 567.282 479.981 577.524 479.981 587.768C479.981 596.62 479.981 605.472 479.981 614.325C479.981 621.565 479.981 628.806 479.981 636.046C479.981 641.455 479.981 646.862 479.981 652.271C479.981 655.627 479.981 658.982 479.981 662.338C479.981 663.594 480.031 664.861 479.968 666.116C479.774 669.962 477.392 673.469 473.885 675.064C471.9 675.967 469.872 675.997 467.752 675.997C464.124 675.997 460.495 675.997 456.865 675.997C450.37 675.997 443.876 675.997 437.38 675.997C428.513 675.997 419.646 675.997 410.777 675.997C399.983 675.997 389.191 675.997 378.397 675.997C366.101 675.997 353.806 675.997 341.51 675.997C328.206 675.997 314.903 675.997 301.599 675.997C287.752 675.997 273.905 675.997 260.058 675.997C246.132 675.997 232.206 675.997 218.282 675.997C204.743 675.997 191.204 675.997 177.665 675.997C164.978 675.997 152.29 675.997 139.603 675.997C128.233 675.997 116.862 675.997 105.492 675.997C95.9024 675.997 86.3143 675.997 76.7251 675.997C69.3826 675.997 62.0413 675.997 54.6988 675.997C50.0689 675.997 45.4377 675.997 40.8078 675.997C39.3431 675.997 37.8773 675.997 36.4126 675.997Z" stroke="black" stroke-width="1.5" stroke-miterlimit="10" stroke-linecap="round" stroke-linejoin="round"/>
</svg>
